<svg xmlns="http://www.w3.org/2000/svg" viewBox="0 0 3147 2000"><defs><style>.cls-1{isolation:isolate;}.cls-2{fill:#fff;}.cls-3{fill:#9bc1f9;opacity:0.3;}.cls-4{fill:#466eb6;}.cls-5{fill:#7f1ca0;}.cls-6{fill:#f47458;}.cls-7{fill:#f48c7f;}.cls-8{fill:#b75742;}.cls-9{fill:#13375b;}.cls-10{fill:#355389;}.cls-11{fill:#86b1f2;}.cls-12{fill:#fae0b2;}.cls-13{fill:#daeef7;mix-blend-mode:multiply;}.cls-14{fill:#50bfa5;}.cls-15{fill:#3c8f7c;}.cls-16{fill:#184655;}.cls-17{fill:#f7cc7f;}.cls-18{fill:#efefef;}.cls-19{fill:#f79c8d;}.cls-20{fill:#042a44;}.cls-21{fill:#07345a;}.cls-22{fill:#f7a491;}.cls-23{fill:#327f6b;}</style></defs><g class="cls-1"><g id="Layer_1" data-name="Layer 1"><rect class="cls-2" width="3147" height="2000"/><path class="cls-3" d="M2844.72,1539.64H2493.47c37.6-34.54,61.57-86.86,61.57-145.42v-43c0-124.66,90.62-225.72,202.42-225.72h0c114.6,0,207.51-103.6,207.51-231.39h0c0-127.8-92.91-231.39-207.51-231.39h-34C2611.67,662.68,2521,561.62,2521,437h0c0-104-75.63-188.35-168.92-188.35H1032.28c-103.84,0-188,93.86-188,209.64h0c0,79.15,39.34,148,97.4,183.73H709.83c-96.69,0-175.08,80.89-175.08,180.67h0c0,119.58-93.93,216.51-209.8,216.51H289.71c-118.78,0-215.07,99.37-215.07,221.95h0c0,122.58,96.29,222,215.07,222h0c115.88,0,209.81,96.93,209.81,216.51v41.28c0,99.78,78.38,180.67,175.07,180.67h814.66c6.14.59,12.37.91,18.67.91h1336.8c105.7,0,191.39-85.69,191.39-191.4h0C3036.11,1625.34,2950.42,1539.64,2844.72,1539.64Z"/><path class="cls-4" d="M920.7,1309.9c-5.33,0-9.67,6.14-9.69,13.73s4.29,13.77,9.62,13.78,9.67-6.13,9.68-13.73S926,1309.92,920.7,1309.9Zm0,3.89c2.86,0,5.17,1.44,5.17,3.2s-2.33,3.18-5.19,3.17-5.17-1.44-5.17-3.2S917.83,1313.78,920.69,1313.79Zm-.05,18.46c-4,0-7.3-2.22-7.29-4.93s3.28-4.91,7.32-4.9,7.3,2.22,7.29,4.93S924.68,1332.26,920.64,1332.25Z"/><path class="cls-5" d="M898.79,1340.27a33.24,33.24,0,0,0-3.1,13.94l-.25,100.69a11.07,11.07,0,0,0,11.1,11l57.57.14a11.06,11.06,0,0,0,11.15-11l.25-100.7a33.43,33.43,0,0,0-3-14Z"/><path class="cls-5" d="M898.79,1340.27a33.24,33.24,0,0,0-3.1,13.94l-.25,100.69a11.07,11.07,0,0,0,11.1,11l57.57.14a11.06,11.06,0,0,0,11.15-11l.25-100.7a33.43,33.43,0,0,0-3-14Z"/><path class="cls-6" d="M975.52,1354.4l-.25,100.7a11.07,11.07,0,0,1-11.15,11l-57.58-.14a11.05,11.05,0,0,1-11.09-11l.24-100.7a33.29,33.29,0,0,1,3.1-13.93l73.69.19A33.43,33.43,0,0,1,975.52,1354.4Z"/><path class="cls-7" d="M910.71,1454.94l.24-100.7a33.53,33.53,0,0,1,3.1-13.93l-15.26,0a33.24,33.24,0,0,0-3.1,13.94l-.25,100.69a11.07,11.07,0,0,0,11.1,11l15.26,0A11.05,11.05,0,0,1,910.71,1454.94Z"/><path class="cls-8" d="M975.52,1354.4l-.25,100.7a11.07,11.07,0,0,1-11.15,11l-23.54,0a11.15,11.15,0,0,0,11.27-11l.24-100.7A33.3,33.3,0,0,0,949,1340.4l23.45.06A33.43,33.43,0,0,1,975.52,1354.4Z"/><path class="cls-9" d="M972.48,1340.45l-73.7-.18h0a5.85,5.85,0,0,1,5.9-5.81l61.92.15a5.86,5.86,0,0,1,5.88,5.84Z"/><rect class="cls-10" x="929.13" y="1401.46" width="12.51" height="79.82" transform="translate(-508.28 2373.22) rotate(-89.86)"/><path class="cls-11" d="M826.26,1307.85h8.8a9.23,9.23,0,0,0-5.2-1.57H609.3c-11.54,0-20.89,8.29-20.89,18.52v11.76c0,10.23,9.35,18.52,20.89,18.52l218.09-.06Z"/><path class="cls-4" d="M701,1306.32c-11,0-20,7.93-20,17.71v13.3c0,9.78,9,17.71,20,17.71h137.3v-3h-.56l-34.91-2.93-7-24.54s13.61-13.55,14.5-13.9,27.46-1.42,27.46-1.42h.56v-3Z"/><path class="cls-12" d="M829.44,1330.59c0-14.34,8.36-21.29,8.36-21.29H703.86c-10.14,0-18.36,7.28-18.36,16.26v10.24c0,9,8.22,16.27,18.36,16.27H837.8S829.44,1348.66,829.44,1330.59Z"/><path class="cls-13" d="M685.5,1325.56v10.24a14.46,14.46,0,0,0,.54,3.9c4.51-9.8,13.17-19.24,29.66-22.27,38.48-7.08,122.1-8.13,122.1-8.13H703.86C693.72,1309.3,685.5,1316.58,685.5,1325.56Z"/><path class="cls-14" d="M822.63,1405.41h10a9.69,9.69,0,0,0-5.89-2H577.08a23.42,23.42,0,0,0-23.65,23.19v14.72a23.42,23.42,0,0,0,23.65,23.19l246.83-.09Z"/><path class="cls-15" d="M680.91,1403.49a22.4,22.4,0,0,0-22.62,22.17v16.64a22.4,22.4,0,0,0,22.62,22.17h155.4v-3.72h-.65l-39.5-3.67-8-30.71s15.42-17,16.42-17.41,31.07-1.76,31.07-1.76h.65v-3.7Z"/><path class="cls-12" d="M826.23,1433.87c0-17.95,9.46-26.66,9.46-26.66H684.09a20.57,20.57,0,0,0-20.77,20.37v12.81a20.57,20.57,0,0,0,20.77,20.36h151.6S826.23,1456.48,826.23,1433.87Z"/><path class="cls-13" d="M663.32,1427.58v12.81a20.19,20.19,0,0,0,.6,4.88c5.12-12.27,14.92-24.08,33.57-27.88,43.56-8.86,138.2-10.18,138.2-10.18H684.09A20.57,20.57,0,0,0,663.32,1427.58Z"/><path class="cls-6" d="M545.2,1356.52h-10a11.55,11.55,0,0,1,5.89-1.56H790.85c13.06,0,23.65,8.24,23.65,18.4V1385c0,10.16-10.59,18.39-23.65,18.39l-246.93-.06Z"/><path class="cls-8" d="M687,1355c12.5,0,22.63,7.88,22.63,17.6v13.2c0,9.72-10.13,17.59-22.63,17.59H531.51v-3h.65l39.52-2.91,8-24.37s-15.42-13.47-16.43-13.81-31.08-1.4-31.08-1.4h-.65V1355Z"/><path class="cls-12" d="M541.6,1379.11c0-14.25-9.47-21.15-9.47-21.15H683.79c11.48,0,20.78,7.23,20.78,16.16v10.16c0,8.92-9.3,16.16-20.78,16.16H532.13S541.6,1397.05,541.6,1379.11Z"/><path class="cls-13" d="M704.57,1374.12v10.16a12.53,12.53,0,0,1-.61,3.87c-5.11-9.73-14.91-19.1-33.58-22.11-43.57-7-138.25-8.08-138.25-8.08H683.79C695.27,1358,704.57,1365.19,704.57,1374.12Z"/><rect class="cls-16" x="1387.36" y="1375.53" width="23.83" height="546.04" transform="translate(331.47 -231.74) rotate(10.73)"/><polygon class="cls-16" points="2136.89 1921.5 2165.05 1921.5 2060.11 1378.04 2036.69 1382.48 2136.89 1921.5"/><polygon class="cls-16" points="1621.32 1921.5 1649.48 1921.5 1544.54 1378.04 1521.12 1382.48 1621.32 1921.5"/><polygon class="cls-16" points="1880.31 1921.5 1857.44 1921.77 1958.06 1380.48 1981.47 1384.91 1880.31 1921.5"/><path class="cls-12" d="M1778.16,646.12c92.71,9.93,212.69,20.41,333.13,224.8,131.64,223.4,62.35,557.09-41.55,649.82s-443.25,207.22-728.51,35.82c0,0-172.24-103.88-83.84-276.28C1393.42,1015,1374.2,959.66,1435,855.69S1581.37,625.05,1778.16,646.12Z"/><path class="cls-17" d="M2111.29,870.92c-82.2-139.5-164.19-188.66-237.44-209,28.33,29.32,57.05,67,85.81,115.83,131.64,223.4,62.34,557.09-41.56,649.82-92.14,82.23-369.44,181.55-630,83.44,26.79,29.65,53.11,45.52,53.11,45.52,285.26,171.41,624.61,56.92,728.51-35.81S2242.93,1094.32,2111.29,870.92Z"/><path class="cls-7" d="M492,804.46c-2.63,20.73,18.95,37.17,38.14,35.88,21.22-1.44,39.22-18.84,42.32-39.69,3.36-22.57-10.2-40.62-31.18-42.27-20.42-1.61-33.48,16.57-27.59,34.91,4.23,13.15,16.24,18.05,22.28,14.43,4.72-2.83,4.43-10-1.27-11.22a5.89,5.89,0,0,0-5.86,2.52c-5-2-9.75-11.08-6.53-20.89,4.12-12.55,20-13.26,29.83-7.41,12.53,7.44,14.5,23.47,9.91,36.25-4.83,13.41-18,24-32.35,25a30.06,30.06,0,0,1-31.84-27.49A2.93,2.93,0,0,0,492,804.46Z"/><path class="cls-12" d="M1920.46,112.71c-96-.57-174,46.75-174.37,105.69-.18,29.47,19.11,56.27,50.44,75.77l-39.46,86.68,82.35-67.08a264.38,264.38,0,0,0,79.77,12.39c96,.57,174-46.75,174.38-105.7S2016.41,113.28,1920.46,112.71Z"/><path class="cls-17" d="M1854,229.59a60.55,60.55,0,1,0,43.11-74A60.53,60.53,0,0,0,1854,229.59Z"/><path class="cls-18" d="M1946.28,215.18a32.37,32.37,0,1,1-62.6,16.51Z"/><path class="cls-6" d="M930,949.58l264.92-2a11,11,0,0,0,10.87-11l-1.33-177.11a11,11,0,0,0-11-10.87l-264.92,2a11,11,0,0,0-10.87,11L919,938.71A11,11,0,0,0,930,949.58Z"/><polygon class="cls-6" points="1196.36 847.09 1281.89 934.25 1176.37 914.56 1196.36 847.09"/><path class="cls-2" d="M1119.18,834.8l-25.74-.46S1061,810.12,1060,801.56s4.33-26.68-.7-29-15.69-4.07-22.42,7.27c-4.89,8.23-.82,38.26-3.84,40.27-1.9,1.26-16.7,1.41-27.51,1.35a19.11,19.11,0,0,0-17,10.15v0A10.18,10.18,0,0,0,991,844.23l5.75,4.8-4.52,6a10.17,10.17,0,0,0,2,14.21l4.53,3.45-3.1,3.54a10.17,10.17,0,0,0,1.8,15l4,2.83-.6,1.11a10.18,10.18,0,0,0,3.32,13.34l4.05,2.68,68.56,1.21a47,47,0,0,0,18.74-3.52l24.19-3.56a5.3,5.3,0,0,0,4.53-5.24l.16-60A5.32,5.32,0,0,0,1119.18,834.8Z"/><polygon class="cls-19" points="1480.51 985.67 1456.68 1057.16 1529.31 1028.6 1480.51 985.67"/><path class="cls-20" d="M1555.38,772.94c-4.84.2-18.11,4.62-37.51,41.16-24.77,46.66-61,187.62-61,187.62L1565,1041.83l13.88-29.42,22.87-226.5S1556.72,772.88,1555.38,772.94Z"/><path class="cls-21" d="M1698.25,752.62c-30.91,0-107.38,9-142.87,20.33,0,0-26.07,223.34,23.47,393,11.1,38-9.17,157.49-9.17,157.49l320.26-4.21s-37.94-288.89-23.65-335.55,14.63-209.28,14.63-209.28-2.19-.34-72-12.36C1776.43,756.49,1731.25,752.58,1698.25,752.62Z"/><path class="cls-22" d="M1735.57,1738s-7.09,81.5-20.11,104.07.68,60.93,1.37,66.2,27.42,12.79,69.93,8.27,41.82-14.29,38.39-30.09-26.05-36.11-27.42-51.15,13-69.21,13-69.21Z"/><path class="cls-23" d="M1605.81,1256.22s-221.07-12.23-270.44,17.56,8.93,91,8.93,91,180,78,481.29,95.31c71.35,4.11,77.5-185.41,64.16-201.09S1605.81,1256.22,1605.81,1256.22Z"/><path class="cls-10" d="M1792.06,1922.89c43.77-4.65,38.36-26.08,34.83-42.35-2.21-10.18-14.77-22.19-22.25-33.55-3.91,3.11-10.28,8.59-29.29,14.19-19.74,5.81-46.8-5.69-64-12.9-6.14,22.8-6.42,51.87-5.85,56.28C1706.17,1910,1748.29,1927.54,1792.06,1922.89Z"/><path class="cls-15" d="M1767.9,1413.84c-8.83,66.61-52.56,398.21-52.56,398.21l101.47,12.53s124.78-432.81,118.38-499-53.11-71.76-53.11-71.76S1791.28,1237.52,1767.9,1413.84Z"/><path class="cls-21" d="M1670.69,470.85s33.72-35.55,60.84,7.69c0,0,20.88-11.73,35.54,9.16,0,0,37.75-11.36,46.91,45.08,0,0,19.42-3.67,22,19.42s-9.16,38.48-9.16,38.48,10.91,8.18,6,29.4c-4.22,18-19.15,20.8-19.15,20.8s-4,30.41-17.22,39.58-31.15,4.76-31.15,4.76-4.76,16.49-20.16,15-34.44-16.12-51.67-9.52-61.93-.37-61.93-.37-50.2-22.35-35.18-73.66c0,0-26.38-23.82-3.29-52.4,0,0-16.86-44.71,16.49-71.09S1670.69,470.85,1670.69,470.85Z"/><path class="cls-22" d="M1676.39,712.17l-6.1,45.28s-13.67,65.23,3.91,77.8,74.8-79.66,74.8-79.66l-6-114.73Z"/><path class="cls-6" d="M1744.91,678c-14.53,39.13-49.13,63.19-73.69,72.52l5.17-38.39L1743,640.86Z"/><path class="cls-22" d="M1702.31,520.33c-35.69-12.29-73.74,11.42-79.18,48.22a456.85,456.85,0,0,0-4.91,58.08c-1,52.89,26.41,104.35,50.43,104.35s90.38-34.23,92.78-109.3C1762.91,575.33,1739.77,533.22,1702.31,520.33Z"/><path class="cls-22" d="M1743.73,627.61c0,11.67,7.74,21.12,17.28,21.12s17.27-9.45,17.27-21.12-7.74-21.12-17.27-21.12S1743.73,616,1743.73,627.61Z"/><path class="cls-21" d="M1598.28,494c-24.81,19.65-33.5,49.5-19.42,66.68s45.61,15.18,70.41-4.47,33.5-49.5,19.42-66.69S1623.08,474.37,1598.28,494Z"/><path class="cls-22" d="M1884.41,799.28c-29.94-11.2-44.59,257.68-48.63,368.36-53,5.08-145.45,0-168.46-1.69-10.83-.81-35.78-9.92-46.55-11.32-11-1.44-21-2.19-26.45-1.25-2,.35-57.26,22.87-62,27.81-5.86,6.13-21.72,21.58-19,28.26s30.49-18.62,30.49-18.62l13.59-7.6c-16.92,16.48-49.2,38.17-44.55,46.07,4.54,7.71,33.65-14.31,54.4-29.31-17.8,16-39.91,44.68-34.81,49.15,4.57,4,29.72-29.17,56.6-38.73,10-3.54,19.89,6.27,27.73,7.45,5.75.87,14.64,2.73,20.29,1.13l29.11-8.22c9.91.89,10.16,6.73,20.17,8.86,11.62,2.46,30.69,5.06,45.49,8.66,85.23,20.76,113.66,30.39,139.75,30.38C1950.59,1258.62,1955.18,825.73,1884.41,799.28Z"/><path class="cls-21" d="M1941.24,1051.71c5.61-113.36,4.78-253.09-59-276.93-25.16-9.41-69.51,47.15-61.54,279.23C1854.76,1056.81,1904.74,1059.07,1941.24,1051.71Z"/><polygon class="cls-19" points="1584.49 1003 1590.99 1003 1688.71 1242.31 1681.98 1241.29 1584.49 1003"/><path class="cls-22" d="M1438.85,1807.73s8.85,28.29-7,47-81.74,37.07-90.38,47.2-8,18.76-8,18.76l184.9-5.07-2-55.65-8.52-40Z"/><path class="cls-10" d="M1420.34,1864.06s47.51,19.15,70.46,7.81,22.26-14.48,28.9-10.25,9,56.4,9,56.4l-207.91,6.09c-14.47-.33-21.79-10.95-10-20,8.06-6.24,17.37-10.41,22.67-13.43C1349.71,1881.34,1420.34,1864.06,1420.34,1864.06Z"/><path class="cls-15" d="M1445.85,1308.44c-14.29-30-46.79-69-104-45.49-54.54,22.42-69.18,77.51-52,133.92s130.5,388.05,134.45,433.64l90.45.6s-16.44-262.59-20.47-326.06C1490.45,1444,1470.59,1360.32,1445.85,1308.44Z"/><path class="cls-6" d="M1299,1003h302.37a19.71,19.71,0,0,1,18.24,12.24l93.1,227.07h166.7a8.44,8.44,0,0,1,8.44,8.43h0a8.44,8.44,0,0,1-8.44,8.44H1405a33.12,33.12,0,0,1-30.21-19.56L1281,1030.79A19.72,19.72,0,0,1,1299,1003Z"/><path class="cls-2" d="M1461.8,1135.23c2,10.2,10.94,17,19.88,15.23s14.51-11.5,12.47-21.7-10.94-17-19.87-15.23S1459.76,1125,1461.8,1135.23Z"/><ellipse class="cls-3" cx="2311.9" cy="532.18" rx="149.3" ry="149.61"/><rect class="cls-16" x="2151.33" y="529.24" width="55.04" height="4.24"/><rect class="cls-16" x="2417.77" y="529.24" width="55.04" height="4.24"/><rect class="cls-16" x="2309.55" y="372.41" width="4.23" height="55.16"/><rect class="cls-16" x="2309.55" y="638.33" width="4.23" height="55.16"/><path class="cls-16" d="M2316.45,532.18a4.56,4.56,0,1,1-4.55-4.56A4.56,4.56,0,0,1,2316.45,532.18Z"/><path class="cls-16" d="M2311.9,534.22a2,2,0,0,1-1.44-.59l-81.87-82a2,2,0,1,1,2.88-2.89l81.87,82a2.06,2.06,0,0,1,0,2.89A2,2,0,0,1,2311.9,534.22Z"/><path class="cls-16" d="M2338.22,615.09a1.47,1.47,0,0,1-.74-.86L2311,534.14a1.48,1.48,0,1,1,2.81-.94l26.46,80.1a1.48,1.48,0,0,1-2.07,1.79Z"/><path class="cls-21" d="M2549.85,869.65,2563.18,848l-10.7-4.34a4.58,4.58,0,0,1-2.52-6h0a4.58,4.58,0,0,1,6-2.52l12.34,5,11.91-19.44-11.43-4.64a4.57,4.57,0,0,1-2.52-6h0a4.58,4.58,0,0,1,6-2.52l13.07,5.3,13.84-22.26a4.56,4.56,0,0,1,5.6-1.82l2,.81a4.57,4.57,0,0,1,2.18,6.63l-12.87,21L2615,825l13.84-22.26a4.59,4.59,0,0,1,5.61-1.83l2.17.89a4.57,4.57,0,0,1,2.18,6.63l-12.86,21,10.7,4.34a4.58,4.58,0,0,1,2.52,6h0a4.58,4.58,0,0,1-6,2.52l-12.34-5-11.73,19.51,11.43,4.63a4.58,4.58,0,0,1,2.52,6h0a4.57,4.57,0,0,1-6,2.52l-13.07-5.3-14.14,23a4.57,4.57,0,0,1-5.61,1.84l-2.34-1a4.56,4.56,0,0,1-2.17-6.63l13.32-21.65-18.95-7.68L2560,875.39a4.58,4.58,0,0,1-5.62,1.84l-2.33-.94A4.58,4.58,0,0,1,2549.85,869.65Zm48.29-17.34,11.92-19.44-18.95-7.69-11.92,19.44Z"/><path class="cls-7" d="M1380.78,280.88l13.62-30.75-17.61-28.66a4.63,4.63,0,0,1,4.42-7l33.45,3.46,21.82-25.61a4.63,4.63,0,0,1,8,2l7,32.89,31.09,12.83a4.63,4.63,0,0,1,.55,8.28l-29.09,16.87-2.6,33.53a4.63,4.63,0,0,1-7.7,3.09l-25-22.47-32.69,7.9A4.63,4.63,0,0,1,1380.78,280.88Z"/><path class="cls-17" d="M2367.8,280.85,2378,257.78l-13.21-21.5a3.46,3.46,0,0,1,3.31-5.26l25.1,2.59,16.36-19.2a3.47,3.47,0,0,1,6,1.52l5.29,24.67,23.32,9.63a3.46,3.46,0,0,1,.42,6.2l-21.83,12.66-1.95,25.15a3.47,3.47,0,0,1-5.77,2.31l-18.78-16.85-24.53,5.92A3.46,3.46,0,0,1,2367.8,280.85Z"/><path class="cls-7" d="M2266.35,939.92l-1.62-19.1-16.66-9.5a2.64,2.64,0,0,1,.29-4.72l17.67-7.45,3.88-18.78a2.64,2.64,0,0,1,4.58-1.18l12.54,14.5,19.06-2.1a2.63,2.63,0,0,1,2.54,4L2298.71,912l7.9,17.47a2.64,2.64,0,0,1-3,3.66l-18.68-4.37-14.18,12.91A2.64,2.64,0,0,1,2266.35,939.92Z"/><path class="cls-17" d="M737.66,659l7.5-16.92-9.69-15.76a2.55,2.55,0,0,1,2.43-3.87l18.4,1.91,12-14.09a2.54,2.54,0,0,1,4.42,1.12l3.88,18.09,17.11,7.06a2.55,2.55,0,0,1,.3,4.55l-16,9.28-1.43,18.45a2.54,2.54,0,0,1-4.23,1.69l-13.77-12.35-18,4.34A2.55,2.55,0,0,1,737.66,659Z"/><path class="cls-14" d="M1317.76,628.38l7.49-16.91-9.68-15.77a2.54,2.54,0,0,1,2.42-3.86l18.41,1.9,12-14.08a2.54,2.54,0,0,1,4.42,1.12l3.88,18.09,17.1,7.06a2.54,2.54,0,0,1,.3,4.55l-16,9.28-1.43,18.44a2.54,2.54,0,0,1-4.23,1.7l-13.78-12.35-18,4.34A2.55,2.55,0,0,1,1317.76,628.38Z"/><polygon class="cls-14" points="1028.94 354.35 1058.64 350.04 1070.85 397.06 1115.05 396.12 1129.94 429.82 1147 422.28 1127.08 377.21 1085.19 378.11 1072.49 329.19 1027.8 335.67 1028.94 354.35"/><polygon class="cls-21" points="965.26 1142.01 987.73 1122.12 1023.73 1154.75 1060.17 1129.72 1091.1 1149.74 1101.23 1134.08 1059.87 1107.31 1025.33 1131.03 987.88 1097.09 954.06 1127.01 965.26 1142.01"/><path class="cls-14" d="M612.25,1166.61,631.11,1136,616,1129.83a6.47,6.47,0,0,1-3.57-8.43h0a6.47,6.47,0,0,1,8.43-3.57l17.47,7.08,16.86-27.51L639,1090.84a6.46,6.46,0,0,1-3.57-8.43h0a6.47,6.47,0,0,1,8.43-3.57l18.5,7.5,19.58-31.5a6.48,6.48,0,0,1,7.94-2.58l2.82,1.14a6.48,6.48,0,0,1,3.09,9.39l-18.21,29.72,26.82,10.88,19.58-31.5a6.47,6.47,0,0,1,7.93-2.59l3.09,1.25a6.48,6.48,0,0,1,3.08,9.39l-18.21,29.72,15.15,6.15a6.47,6.47,0,0,1,3.56,8.43h0a6.47,6.47,0,0,1-8.43,3.57l-17.47-7.08-16.6,27.61,16.18,6.56a6.48,6.48,0,0,1,3.56,8.44h0a6.47,6.47,0,0,1-8.43,3.56l-18.5-7.5-20,32.49a6.49,6.49,0,0,1-8,2.61l-3.3-1.34a6.48,6.48,0,0,1-3.08-9.4l18.86-30.63-26.82-10.88-20,32.49a6.46,6.46,0,0,1-7.94,2.6l-3.31-1.33A6.48,6.48,0,0,1,612.25,1166.61Zm68.35-24.54,16.86-27.51-26.82-10.88-16.86,27.51Z"/><path class="cls-15" d="M2325.58,1554.16c-1.91-17-4.19-34.27-12.06-49.39-9.56-18.39-26.35-31.65-41-46.26A256.76,256.76,0,0,1,2211.3,1361c-9.79-28.3-14.67-58.45-28.17-85.17-8.24-16.32-19.48-30.91-28.84-46.61-22.12-37.11-34.17-81-64.17-112a134.67,134.67,0,0,0,30.41,106.51c7.39,8.62,16,16.39,21.59,26.25,10.22,17.91,9.29,39.75,10.49,60.34a264.9,264.9,0,0,0,31.68,110.89c19.69,36.15,48.1,68.34,58.62,108.14,7.89,29.83,5.54,63.29,22.36,89.14,1.82,2.8,3.91,5.61,4.35,8.93a19.54,19.54,0,0,1-.33,5.6q-.55,3.6-1.13,7.21c-3.82,24.41-7.78,55.47,13.2,73.74,14.54,12.67,33.25,13,43.7-3.87s9.58-41.72,8.8-60.78C2332.56,1617.54,2329.16,1585.71,2325.58,1554.16Z"/><path class="cls-23" d="M2363.37,1534.52c-8.16-28.26-20.83-55.18-27.18-83.9-6.15-27.86-6.2-56.66-6.22-85.2q0-46.9-.07-93.81c0-19.46,0-39-3.25-58.23-6.92-41.31-28.39-79.51-32-121.23-1.57-18.05.25-36.29-1.73-54.29-1.13-10.28-3.77-20.78-8.53-29.91a13.32,13.32,0,0,0-23.91.67c-10.43,22.6-17,47-12.83,71.23,2.53,14.52,8.82,28.06,13.52,42,20.91,62.2,9.81,131.06,26,194.67,4.88,19.2,12.26,38,13.12,57.82,2.06,47.38-33.32,90.65-30.08,138,2.66,38.79,30.55,70.89,42.25,108,6.56,20.75,8,42.9,15,63.49,5.45,16,18.14,35.44,37.84,30.58,18.7-4.61,13.05-19.87,12.22-34.46C2374.63,1630.57,2377.29,1582.71,2363.37,1534.52Z"/><path class="cls-15" d="M2406.18,1560.42c-.82-14.69-3.3-29.45-1.25-44,1.74-12.3,6.63-23.89,10.13-35.8,6.55-22.33,8.17-45.77,9.76-69q4.32-63.31,8.65-126.63c4.49-65.62,9-131.42,21.26-196,3.41-17.94,7.23-37.38-.83-53.76-1.7-3.45-5.05-7.11-8.71-6-2.61.82-3.89,3.69-4.84,6.27-26.82,72.88-36.95,151.34-66.89,223-7.17,17.17-15.51,34-19.22,52.28-4.46,21.9-2,44.51-1.43,66.84.82,32-2.3,64.32-11.14,95.11-4.63,16.11-10.83,31.86-13.36,48.43-3.17,20.67-.51,41.72,1.47,62.53a962.57,962.57,0,0,1,3.86,120.43c-.73,23.62,19.21,23,32.41,8.49,9.24-10.15,9.15-21.29,12.32-33.92C2388.75,1637.22,2408.7,1605.38,2406.18,1560.42Z"/><path class="cls-23" d="M2281.63,1624.46c-17.63-28.33-52.75-44.43-64-75.85-2.87-8-4-16.59-7.49-24.33-7.78-17.18-25.47-26.89-42.86-34.79a3.67,3.67,0,0,0-5.19,3.31h0a12.55,12.55,0,0,0,5.44,10.61,70.5,70.5,0,0,1,28.11,38.34c5.37,18.41,3,38.59,9.72,56.57,5.6,15.09,17.14,27.43,22.56,42.59,4.95,13.85,4.43,29,6.76,43.53s8.79,30,22.13,36.11C2305.08,1742.8,2293,1642.76,2281.63,1624.46Z"/><path class="cls-15" d="M2482.47,1615.11c-.75,13.69,1.34,28.05-4,40.67-3.43,8.08-9.59,14.6-14.66,21.76-17.77,25.15-24.22,60.77-51.53,74.93-1.8.93-3.81,1.77-5.81,1.39-2.8-.52-4.63-3.22-5.76-5.84-6.69-15.6.82-33.17,5.27-49.56.78-2.87,1.43-6.06.06-8.7-1.5-2.9-4.93-4.16-7.27-6.44-4.66-4.53-4.22-12-3.3-18.5a419.17,419.17,0,0,1,9.75-47.83c2.36-8.92,5.09-17.92,10.24-25.58,5.66-8.44,13.88-14.73,21.57-21.35a255.81,255.81,0,0,0,74.65-110.19c3.15-9.2,6-18.91,12.49-26.11s18.14-10.9,26.08-5.32c5.65,4-17.49,41.21-20.19,45.67-7.71,12.76-7.81,23.86-12.17,38C2507.19,1546.85,2484.51,1577.92,2482.47,1615.11Z"/><path class="cls-23" d="M2455.55,1630.94c5-13.06,10.15-26.29,11.81-40.2,1.85-15.47-.6-31.28,2-46.63,3.39-19.73,14.9-37.09,20.59-56.28,4.12-13.86,5.13-28.42,7.6-42.67,7.06-40.74,26.21-80.55,20.72-121.53-1.2-8.91-5.22-19.3-14.07-20.82-8-1.38-15.3,6-17.38,13.82s-.53,16.17,0,24.29a100.21,100.21,0,0,1-18,64.31c-12.58,17.81-30.84,31.21-42.16,49.84-13.89,22.86-15.78,50.76-22.86,76.56-14.1,51.3-49.44,96.06-55.89,148.88-2.56,21,2.37,46.57,21.77,55C2425.9,1759.76,2442.84,1663.81,2455.55,1630.94Z"/><path class="cls-6" d="M2357.47,1696.06H2228.72a13.65,13.65,0,0,0-13.26,16.82l46.93,197.91a13.64,13.64,0,0,0,13.27,10.5h154.66a13.63,13.63,0,0,0,13.26-10.5l46.94-197.91a13.66,13.66,0,0,0-13.27-16.82Z"/><rect class="cls-16" x="439.84" y="1464.42" width="625.85" height="32.32"/><rect class="cls-16" x="451.16" y="1651.93" width="409.18" height="28.28"/><rect class="cls-16" x="977.88" y="1480.58" width="26.4" height="440.86"/><rect class="cls-16" x="604.52" y="1480.58" width="26.4" height="440.86"/><polygon class="cls-16" points="790.1 1921.44 932.32 1484.37 909.01 1476.79 764.33 1921.44 790.1 1921.44"/><polygon class="cls-16" points="390.06 1921.44 511.7 1483.41 488.08 1476.85 364.62 1921.44 390.06 1921.44"/><path class="cls-16" d="M2311.9,357.45c-96.3,0-174.37,78.23-174.37,174.73s78.07,174.73,174.37,174.73,174.37-78.23,174.37-174.73S2408.2,357.45,2311.9,357.45Zm9.35,324.05c-82.29,5.18-153.19-57.48-158.36-140S2220.25,388,2302.55,382.87s153.19,57.48,158.36,139.94S2403.54,676.33,2321.25,681.5Z"/><rect class="cls-20" x="199.1" y="1918.74" width="2874.63" height="19.5"/><path class="cls-2" d="M1646.89,672.29l46.49-.76s-.78,17.67-21.22,18.6C1647.25,691.25,1646.89,672.29,1646.89,672.29Z"/></g></g></svg>